# xmcd
#
# Track frame offsets: 
#        150
#        26337
#        57222
#        85287
#        130612
#
# Disc length: 2272 seconds
#
# Revision: 2
# Processed by: cddbd v1.5.1PL2 Copyright (c) Steve Scherf et al.
# Submitted via: ExactAudioCopy v0.95b2
#
DISCID=3308de05
DTITLE=Grant Green - Carryin' On
DYEAR=1995
DGENRE=
TTITLE0=Ease Back
TTITLE1=Hurt So Bad
TTITLE2=I Don't Want Nobody to Give Me Nothing (Open up the Door I'll 
TTITLE2=Get It Myself)
TTITLE3=Upshot
TTITLE4=Cease the Bombing
EXTD=
EXTT0=
EXTT1=
EXTT2=
EXTT3=
EXTT4=
PLAYORDER=
